<svg xmlns="http://www.w3.org/2000/svg" viewBox="0 0 64 72" width="64" height="72">
  <rect x="2" y="4" width="60" height="64" rx="13" fill="#FFFFFF"/>
  <path d="M32 15.5 C30 13 27 12 23.5 12 C21.5 12 20 11.2 18.5 11.2 C15 14 12.5 20 11.8 29 L14.5 60 L32 61 Z" fill="#1C3084"/>
  <path d="M32 15.5 C34 13 37 12 40.5 12 C42.5 12 44 11.2 45.5 11.2 C49 14 51.5 20 52.2 29 L49.5 60 L32 61 Z" fill="#F37D1D"/>
  <path d="M31.5 18.8 C29.6 16.5 27.2 15.4 24 15.4 C22.2 15.4 20.8 14.7 19.4 14.7 C16.4 17 14.8 22 14.3 29 L16.7 57.2 L31.5 58.2" stroke="#FFFFFF" stroke-width="1.4" stroke-dasharray="2.6 2" stroke-linecap="round" fill="none"/>
  <path d="M32.5 18.8 C34.4 16.5 36.8 15.4 40 15.4 C41.8 15.4 43.2 14.7 44.6 14.7 C47.6 17 49.2 22 49.7 29 L47.3 57.2 L32.5 58.2" stroke="#FFFFFF" stroke-width="1.4" stroke-dasharray="2.6 2" stroke-linecap="round" fill="none"/>
</svg>
